<?xml version="1.0" encoding="UTF-8" standalone="no"?>
<svg width="76px" height="76px" viewBox="0 0 76 76" version="1.1" xmlns="http://www.w3.org/2000/svg" xmlns:xlink="http://www.w3.org/1999/xlink">
    <!-- Generator: Sketch 50 (54983) - http://www.bohemiancoding.com/sketch -->
    <title>Group 3</title>
    <desc>Created with Sketch.</desc>
    <defs></defs>
    <g id="Page-1" stroke="none" stroke-width="1" fill="none" fill-rule="evenodd">
        <g id="Group-3" transform="translate(1.000000, 1.000000)">
            <circle id="Oval-Copy" stroke="#EC6001" fill="#000000" cx="37" cy="37" r="37"></circle>
            <path d="M23.055,41.31 L22.015,41.31 C21.8983327,41.31 21.8025004,41.2808336 21.7275,41.2225 C21.6524996,41.1641664 21.5983335,41.0916671 21.565,41.005 L21.025,39.53 L18.03,39.53 L17.49,41.005 C17.4633332,41.0816671 17.4108337,41.1516663 17.3325,41.215 C17.2541663,41.2783337 17.1583339,41.31 17.045,41.31 L16,41.31 L18.84,34.08 L20.215,34.08 L23.055,41.31 Z M18.375,38.58 L20.68,38.58 L19.8,36.175 C19.7599998,36.0683328 19.7158336,35.9425007 19.6675,35.7975 C19.6191664,35.6524993 19.5716669,35.4950008 19.525,35.325 C19.4783331,35.4950008 19.4325002,35.6533326 19.3875,35.8 C19.3424998,35.9466674 19.2983335,36.0749995 19.255,36.185 L18.375,38.58 Z M24.505,34.08 C24.5650003,34.08 24.6149998,34.0825 24.655,34.0875 C24.6950002,34.0925 24.7308332,34.1024999 24.7625,34.1175 C24.7941668,34.1325001 24.8249998,34.1541665 24.855,34.1825 C24.8850001,34.2108335 24.9183331,34.2483331 24.955,34.295 L28.75,39.13 C28.7366666,39.0133328 28.7275,38.8991672 28.7225,38.7875 C28.7175,38.6758328 28.715,38.5716671 28.715,38.475 L28.715,34.08 L29.9,34.08 L29.9,41.31 L29.205,41.31 C29.0983328,41.31 29.0100003,41.2933335 28.94,41.26 C28.8699996,41.2266665 28.801667,41.1666671 28.735,41.08 L24.955,36.265 C24.9650001,36.3716672 24.9725,36.4774995 24.9775,36.5825 C24.9825,36.6875005 24.985,36.7833329 24.985,36.87 L24.985,41.31 L23.8,41.31 L23.8,34.08 L24.505,34.08 Z M37.715,41.31 L36.675,41.31 C36.5583328,41.31 36.4625004,41.2808336 36.3875,41.2225 C36.3124996,41.1641664 36.2583335,41.0916671 36.225,41.005 L35.685,39.53 L32.69,39.53 L32.15,41.005 C32.1233332,41.0816671 32.0708337,41.1516663 31.9925,41.215 C31.9141663,41.2783337 31.8183339,41.31 31.705,41.31 L30.66,41.31 L33.5,34.08 L34.875,34.08 L37.715,41.31 Z M33.035,38.58 L35.34,38.58 L34.46,36.175 C34.4199998,36.0683328 34.3758336,35.9425007 34.3275,35.7975 C34.2791664,35.6524993 34.2316669,35.4950008 34.185,35.325 C34.1383331,35.4950008 34.0925002,35.6533326 34.0475,35.8 C34.0024998,35.9466674 33.9583335,36.0749995 33.915,36.185 L33.035,38.58 Z M39.805,40.2 L42.7,40.2 L42.7,41.31 L38.46,41.31 L38.46,34.08 L39.805,34.08 L39.805,40.2 Z M45.71,38.5 L45.71,41.31 L44.365,41.31 L44.365,38.5 L41.73,34.08 L42.915,34.08 C43.0316672,34.08 43.1241663,34.108333 43.1925,34.165 C43.2608337,34.2216669 43.3183331,34.2933329 43.365,34.38 L44.69,36.795 C44.7666671,36.9383341 44.8333331,37.074166 44.89,37.2025 C44.946667,37.330834 44.9983331,37.456666 45.045,37.58 C45.0883336,37.4533327 45.1374997,37.325834 45.1925,37.1975 C45.2475003,37.069166 45.313333,36.9350007 45.39,36.795 L46.705,34.38 C46.7416669,34.3066663 46.7966663,34.2383337 46.87,34.175 C46.9433337,34.1116664 47.0366661,34.08 47.15,34.08 L48.34,34.08 L45.71,38.5 Z M52.915,35.395 C52.8783332,35.4683337 52.8358336,35.5199999 52.7875,35.55 C52.7391664,35.5800002 52.681667,35.595 52.615,35.595 C52.548333,35.595 52.4733338,35.5691669 52.39,35.5175 C52.3066663,35.4658331 52.2083339,35.4083337 52.095,35.345 C51.9816661,35.2816663 51.8491674,35.2241669 51.6975,35.1725 C51.5458326,35.1208331 51.3666677,35.095 51.16,35.095 C50.9733324,35.095 50.810834,35.1174998 50.6725,35.1625 C50.534166,35.2075002 50.4175005,35.2699996 50.3225,35.35 C50.2274995,35.4300004 50.1566669,35.5258328 50.11,35.6375 C50.0633331,35.7491672 50.04,35.871666 50.04,36.005 C50.04,36.1750009 50.0874995,36.3166661 50.1825,36.43 C50.2775005,36.5433339 50.4033326,36.6399996 50.56,36.72 C50.7166675,36.8000004 50.894999,36.8716663 51.095,36.935 C51.295001,36.9983337 51.4991656,37.065833 51.7075,37.1375 C51.9158344,37.209167 52.119999,37.2924995 52.32,37.3875 C52.520001,37.4825005 52.6983326,37.6024993 52.855,37.7475 C53.0116675,37.8925007 53.1374995,38.0699989 53.2325,38.28 C53.3275005,38.4900011 53.375,38.7449985 53.375,39.045 C53.375,39.3716683 53.3191672,39.6774986 53.2075,39.9625 C53.0958328,40.2475014 52.9325011,40.4958323 52.7175,40.7075 C52.5024989,40.9191677 52.2400016,41.0858327 51.93,41.2075 C51.6199985,41.3291673 51.265002,41.39 50.865,41.39 C50.6349989,41.39 50.4083345,41.3675002 50.185,41.3225 C49.9616656,41.2774998 49.747501,41.2133338 49.5425,41.13 C49.337499,41.0466663 49.1458342,40.9466673 48.9675,40.83 C48.7891658,40.7133328 48.6300007,40.5833341 48.49,40.44 L48.88,39.795 C48.9166669,39.7483331 48.9608331,39.7091668 49.0125,39.6775 C49.0641669,39.6458332 49.1216664,39.63 49.185,39.63 C49.2683338,39.63 49.3583329,39.6641663 49.455,39.7325 C49.5516672,39.8008337 49.6658327,39.8766662 49.7975,39.96 C49.9291673,40.0433338 50.0841658,40.1191663 50.2625,40.1875 C50.4408342,40.2558337 50.6549988,40.29 50.905,40.29 C51.2883353,40.29 51.584999,40.1991676 51.795,40.0175 C52.0050011,39.8358324 52.11,39.5750017 52.11,39.235 C52.11,39.0449991 52.0625005,38.8900006 51.9675,38.77 C51.8724995,38.6499994 51.7466675,38.5491671 51.59,38.4675 C51.4333326,38.3858329 51.255001,38.3166669 51.055,38.26 C50.854999,38.203333 50.6516677,38.141667 50.445,38.075 C50.2383323,38.008333 50.035001,37.9283338 49.835,37.835 C49.634999,37.7416662 49.4566675,37.6200008 49.3,37.47 C49.1433326,37.3199992 49.0175005,37.1325011 48.9225,36.9075 C48.8274995,36.6824989 48.78,36.4050017 48.78,36.075 C48.78,35.8116653 48.8324995,35.5550013 48.9375,35.305 C49.0425005,35.0549988 49.1958323,34.8333343 49.3975,34.64 C49.5991677,34.4466657 49.8466652,34.2916673 50.14,34.175 C50.4333348,34.0583328 50.7683315,34 51.145,34 C51.5716688,34 51.9649982,34.066666 52.325,34.2 C52.6850018,34.333334 52.9916654,34.5199988 53.245,34.76 L52.915,35.395 Z M58.965,34.08 L58.965,35.15 L55.76,35.15 L55.76,37.155 L58.285,37.155 L58.285,38.19 L55.76,38.19 L55.76,40.235 L58.965,40.235 L58.965,41.31 L54.405,41.31 L54.405,34.08 L58.965,34.08 Z" id="ANALYSE" fill="#FFFFFF"></path>
        </g>
    </g>
</svg>