<?xml version="1.0" encoding="UTF-8" standalone="no"?>
<svg width="50px" height="50px" viewBox="0 0 50 50" version="1.1" xmlns="http://www.w3.org/2000/svg" xmlns:xlink="http://www.w3.org/1999/xlink">
    <!-- Generator: Sketch 49.3 (51167) - http://www.bohemiancoding.com/sketch -->
    <title>if_46-facebook_104458 (1)</title>
    <desc>Created with Sketch.</desc>
    <defs></defs>
    <g id="Page-1" stroke="none" stroke-width="1" fill="none" fill-rule="evenodd">
        <g id="if_46-facebook_104458-(1)" fill="#000000" fill-rule="nonzero">
            <path d="M25.347,0.157 C11.747,0.157 0.722,11.184 0.722,24.782 C0.722,38.382 11.747,49.405 25.347,49.405 C38.947,49.405 49.972,38.382 49.972,24.782 C49.972,11.184 38.946,0.157 25.347,0.157 Z M31.864,24.679 L27.6,24.679 C27.6,31.493 27.6,39.886 27.6,39.886 L21.28,39.886 C21.28,39.886 21.28,31.579 21.28,24.679 L18.274,24.679 L18.274,19.31 L21.28,19.31 L21.28,15.831 C21.28,13.341 22.462,9.454 27.659,9.454 L32.339,9.472 L32.339,14.687 C32.339,14.687 29.493,14.687 28.941,14.687 C28.386,14.687 27.601,14.964 27.601,16.148 L27.601,19.311 L32.419,19.311 L31.864,24.679 Z" id="Shape"></path>
        </g>
    </g>
</svg>