<?xml version="1.0" encoding="utf-8"?>
<!-- Generator: Adobe Illustrator 21.0.2, SVG Export Plug-In . SVG Version: 6.00 Build 0)  -->
<svg version="1.1" id="Layer_1" xmlns="http://www.w3.org/2000/svg" xmlns:xlink="http://www.w3.org/1999/xlink" x="0px" y="0px"
	 width="231.6px" height="231.6px" viewBox="0 0 231.6 231.6" style="enable-background:new 0 0 231.6 231.6;" xml:space="preserve"
	>
<style type="text/css">
	.st0{fill:#A39261;}
	.st1{fill:#1266AB;}
	.st2{fill:#FFFFFF;}
</style>
<g>
	<circle class="st0" cx="115.8" cy="115.8" r="115.8"/>
	<path class="st1" d="M115.8,7C55.7,7,7,55.7,7,115.8s48.7,108.8,108.8,108.8s108.8-48.7,108.8-108.8S175.9,7,115.8,7z M115.8,212.9
		c-53.7,0-97.2-43.5-97.2-97.2s43.5-97.2,97.2-97.2s97.2,43.5,97.2,97.2S169.4,212.9,115.8,212.9z"/>
	<path d="M115.8,18.6c-53.7,0-97.2,43.5-97.2,97.2s43.5,97.2,97.2,97.2s97.2-43.5,97.2-97.2S169.4,18.6,115.8,18.6z M115.8,200.3
		c-46.7,0-84.5-37.8-84.5-84.5s37.8-84.5,84.5-84.5s84.5,37.8,84.5,84.5S162.5,200.3,115.8,200.3z"/>
	<path class="st2" d="M172.8,147.4l8.6,9.6c-13.7,21.8-38,36.3-65.7,36.3c-42.8,0-77.6-34.7-77.6-77.6S73,38.2,115.8,38.2
		c27.4,0,51.4,14.2,65.2,35.6l-8.7,9.4c-11.3-19.5-32.4-32.6-56.5-32.6c-36,0-65.2,29.2-65.2,65.2S79.8,181,115.8,181
		C140.3,181,161.7,167.5,172.8,147.4z M124,54.6v12.3c6.1,1,11.9,3.2,17.1,6.2l8.3-9.1C141.9,59.1,133.3,55.8,124,54.6z M101,79.4
		h34.2l-9.4,12.9H101v16.7L88,94.8V72.9L81,64.8c7.4-5,15.9-8.5,25.1-10v12.3c-1.7,0.3-3.4,0.8-5.1,1.3V79.4z M163.4,76.5L124,120.2
		v19.3l25.8-28.6v56.5c4.8-3.2,9.2-7.1,12.9-11.4V96.5l8-8.9C168.7,83.7,166.3,79.9,163.4,76.5z M121.5,76.9h-12.9V54.5
		c2.4-0.3,4.8-0.4,7.2-0.4c1.9,0,3.8,0.1,5.7,0.3V76.9z M101,175.8c-4.5-1.1-8.8-2.7-12.9-4.8v-49.4l12.9,14.3V175.8z M106.1,137.8
		l-24.3-27v56.5c-4.8-3.2-9.2-7.1-12.9-11.4V96.5l-8-8.9c2-4,4.5-7.7,7.3-11.2l37.9,42V137.8z M115.8,177.6c-2.4,0-4.8-0.2-7.2-0.4
		V94.9h12.9v82.4C119.6,177.5,117.7,177.6,115.8,177.6z"/>
</g>
</svg>
