<?xml version="1.0" encoding="UTF-8" standalone="no"?>
<svg width="628px" height="304px" viewBox="0 0 628 304" version="1.1" xmlns="http://www.w3.org/2000/svg" xmlns:xlink="http://www.w3.org/1999/xlink">
    <!-- Generator: Sketch 50 (54983) - http://www.bohemiancoding.com/sketch -->
    <title>Group 2</title>
    <desc>Created with Sketch.</desc>
    <defs>
        <linearGradient x1="100%" y1="99.9967515%" x2="0%" y2="98.0477154%" id="linearGradient-1">
            <stop stop-color="#D0041B" offset="0%"></stop>
            <stop stop-color="#FF8F00" offset="51.5512103%"></stop>
            <stop stop-color="#00B050" offset="100%"></stop>
        </linearGradient>
    </defs>
    <g id="Page-1" stroke="none" stroke-width="1" fill="none" fill-rule="evenodd">
        <g id="Group-2" transform="translate(3.000000, 0.000000)">
            <path d="M525.141848,266.590023 L525.141848,269.135023 L523.796848,269.135023 L523.796848,261.905023 L526.151848,261.905023 C526.635184,261.905023 527.053513,261.961689 527.406848,262.075023 C527.760183,262.188357 528.051847,262.346689 528.281848,262.550023 C528.511849,262.753357 528.681848,262.996688 528.791848,263.280023 C528.901849,263.563358 528.956848,263.873355 528.956848,264.210023 C528.956848,264.560025 528.898516,264.880855 528.781848,265.172523 C528.665181,265.464191 528.490183,265.715022 528.256848,265.925023 C528.023514,266.135024 527.73185,266.298356 527.381848,266.415023 C527.031847,266.53169 526.621851,266.590023 526.151848,266.590023 L525.141848,266.590023 Z M525.141848,265.540023 L526.151848,265.540023 C526.398516,265.540023 526.613514,265.50919 526.796848,265.447523 C526.980183,265.385856 527.131848,265.297524 527.251848,265.182523 C527.371849,265.067523 527.461848,264.927524 527.521848,264.762523 C527.581849,264.597522 527.611848,264.413357 527.611848,264.210023 C527.611848,264.016689 527.581849,263.841691 527.521848,263.685023 C527.461848,263.528356 527.371849,263.395024 527.251848,263.285023 C527.131848,263.175023 526.980183,263.090857 526.796848,263.032523 C526.613514,262.974189 526.398516,262.945023 526.151848,262.945023 L525.141848,262.945023 L525.141848,265.540023 Z M534.561848,261.905023 L534.561848,262.975023 L531.356848,262.975023 L531.356848,264.980023 L533.881848,264.980023 L533.881848,266.015023 L531.356848,266.015023 L531.356848,268.060023 L534.561848,268.060023 L534.561848,269.135023 L530.001848,269.135023 L530.001848,261.905023 L534.561848,261.905023 Z M537.116848,266.310023 L537.116848,269.135023 L535.771848,269.135023 L535.771848,261.905023 L537.976848,261.905023 C538.470184,261.905023 538.89268,261.955856 539.244348,262.057523 C539.596017,262.15919 539.884347,262.301689 540.109348,262.485023 C540.334349,262.668357 540.499348,262.887522 540.604348,263.142523 C540.709349,263.397524 540.761848,263.678355 540.761848,263.985023 C540.761848,264.228358 540.726015,264.458355 540.654348,264.675023 C540.582681,264.891691 540.479349,265.088356 540.344348,265.265023 C540.209348,265.441691 540.042683,265.596689 539.844348,265.730023 C539.646014,265.863357 539.420183,265.970023 539.166848,266.050023 C539.336849,266.14669 539.483514,266.285022 539.606848,266.465023 L541.416848,269.135023 L540.206848,269.135023 C540.090181,269.135023 539.991015,269.11169 539.909348,269.065023 C539.827681,269.018356 539.758515,268.95169 539.701848,268.865023 L538.181848,266.550023 C538.125181,266.463356 538.062682,266.40169 537.994348,266.365023 C537.926015,266.328356 537.825182,266.310023 537.691848,266.310023 L537.116848,266.310023 Z M537.116848,265.345023 L537.956848,265.345023 C538.210183,265.345023 538.431014,265.313357 538.619348,265.250023 C538.807683,265.186689 538.962681,265.09919 539.084348,264.987523 C539.206016,264.875856 539.296848,264.743357 539.356848,264.590023 C539.416849,264.436689 539.446848,264.268357 539.446848,264.085023 C539.446848,263.718355 539.326016,263.436691 539.084348,263.240023 C538.84268,263.043355 538.473517,262.945023 537.976848,262.945023 L537.116848,262.945023 L537.116848,265.345023 Z M546.836848,261.905023 L546.836848,262.975023 L543.631848,262.975023 L543.631848,265.115023 L546.336848,265.115023 L546.336848,266.190023 L543.631848,266.190023 L543.631848,269.135023 L542.276848,269.135023 L542.276848,261.905023 L546.836848,261.905023 Z M554.826848,265.520023 C554.826848,266.050026 554.738516,266.540854 554.561848,266.992523 C554.385181,267.444192 554.13685,267.835021 553.816848,268.165023 C553.496847,268.495025 553.111851,268.752522 552.661848,268.937523 C552.211846,269.122524 551.713518,269.215023 551.166848,269.215023 C550.620179,269.215023 550.121017,269.122524 549.669348,268.937523 C549.217679,268.752522 548.831017,268.495025 548.509348,268.165023 C548.18768,267.835021 547.938516,267.444192 547.761848,266.992523 C547.585181,266.540854 547.496848,266.050026 547.496848,265.520023 C547.496848,264.99002 547.585181,264.499192 547.761848,264.047523 C547.938516,263.595854 548.18768,263.205025 548.509348,262.875023 C548.831017,262.545021 549.217679,262.287524 549.669348,262.102523 C550.121017,261.917522 550.620179,261.825023 551.166848,261.825023 C551.713518,261.825023 552.211846,261.918356 552.661848,262.105023 C553.111851,262.291691 553.496847,262.549188 553.816848,262.877523 C554.13685,263.205858 554.385181,263.595854 554.561848,264.047523 C554.738516,264.499192 554.826848,264.99002 554.826848,265.520023 Z M553.446848,265.520023 C553.446848,265.123354 553.394349,264.767525 553.289348,264.452523 C553.184348,264.137522 553.033516,263.870024 552.836848,263.650023 C552.640181,263.430022 552.401016,263.26169 552.119348,263.145023 C551.83768,263.028356 551.520183,262.970023 551.166848,262.970023 C550.813513,262.970023 550.495183,263.028356 550.211848,263.145023 C549.928514,263.26169 549.687683,263.430022 549.489348,263.650023 C549.291014,263.870024 549.138516,264.137522 549.031848,264.452523 C548.925181,264.767525 548.871848,265.123354 548.871848,265.520023 C548.871848,265.916692 548.925181,266.272522 549.031848,266.587523 C549.138516,266.902525 549.291014,267.169189 549.489348,267.387523 C549.687683,267.605858 549.928514,267.773356 550.211848,267.890023 C550.495183,268.00669 550.813513,268.065023 551.166848,268.065023 C551.520183,268.065023 551.83768,268.00669 552.119348,267.890023 C552.401016,267.773356 552.640181,267.605858 552.836848,267.387523 C553.033516,267.169189 553.184348,266.902525 553.289348,266.587523 C553.394349,266.272522 553.446848,265.916692 553.446848,265.520023 Z M557.276848,266.310023 L557.276848,269.135023 L555.931848,269.135023 L555.931848,261.905023 L558.136848,261.905023 C558.630184,261.905023 559.05268,261.955856 559.404348,262.057523 C559.756017,262.15919 560.044347,262.301689 560.269348,262.485023 C560.494349,262.668357 560.659348,262.887522 560.764348,263.142523 C560.869349,263.397524 560.921848,263.678355 560.921848,263.985023 C560.921848,264.228358 560.886015,264.458355 560.814348,264.675023 C560.742681,264.891691 560.639349,265.088356 560.504348,265.265023 C560.369348,265.441691 560.202683,265.596689 560.004348,265.730023 C559.806014,265.863357 559.580183,265.970023 559.326848,266.050023 C559.496849,266.14669 559.643514,266.285022 559.766848,266.465023 L561.576848,269.135023 L560.366848,269.135023 C560.250181,269.135023 560.151015,269.11169 560.069348,269.065023 C559.987681,269.018356 559.918515,268.95169 559.861848,268.865023 L558.341848,266.550023 C558.285181,266.463356 558.222682,266.40169 558.154348,266.365023 C558.086015,266.328356 557.985182,266.310023 557.851848,266.310023 L557.276848,266.310023 Z M557.276848,265.345023 L558.116848,265.345023 C558.370183,265.345023 558.591014,265.313357 558.779348,265.250023 C558.967683,265.186689 559.122681,265.09919 559.244348,264.987523 C559.366016,264.875856 559.456848,264.743357 559.516848,264.590023 C559.576849,264.436689 559.606848,264.268357 559.606848,264.085023 C559.606848,263.718355 559.486016,263.436691 559.244348,263.240023 C559.00268,263.043355 558.633517,262.945023 558.136848,262.945023 L557.276848,262.945023 L557.276848,265.345023 Z M566.066848,266.135023 C566.123515,266.24169 566.176015,266.352523 566.224348,266.467523 C566.272682,266.582524 566.320181,266.698356 566.366848,266.815023 C566.413515,266.695023 566.461848,266.57669 566.511848,266.460023 C566.561849,266.343356 566.615181,266.23169 566.671848,266.125023 L568.811848,262.120023 C568.838515,262.070023 568.866015,262.030023 568.894348,262.000023 C568.922682,261.970023 568.954348,261.948357 568.989348,261.935023 C569.024348,261.92169 569.063515,261.913356 569.106848,261.910023 C569.150182,261.90669 569.201848,261.905023 569.261848,261.905023 L570.276848,261.905023 L570.276848,269.135023 L569.091848,269.135023 L569.091848,264.465023 C569.091848,264.378356 569.094348,264.283357 569.099348,264.180023 C569.104348,264.076689 569.111848,263.97169 569.121848,263.865023 L566.936848,267.965023 C566.886848,268.058357 566.821849,268.130856 566.741848,268.182523 C566.661848,268.23419 566.568516,268.260023 566.461848,268.260023 L566.276848,268.260023 C566.170181,268.260023 566.076849,268.23419 565.996848,268.182523 C565.916848,268.130856 565.851849,268.058357 565.801848,267.965023 L563.586848,263.850023 C563.600182,263.960024 563.609348,264.067523 563.614348,264.172523 C563.619348,264.277524 563.621848,264.375023 563.621848,264.465023 L563.621848,269.135023 L562.436848,269.135023 L562.436848,261.905023 L563.451848,261.905023 C563.511849,261.905023 563.563515,261.90669 563.606848,261.910023 C563.650182,261.913356 563.689348,261.92169 563.724348,261.935023 C563.759348,261.948357 563.791848,261.970023 563.821848,262.000023 C563.851848,262.030023 563.880182,262.070023 563.906848,262.120023 L566.066848,266.135023 Z M578.091848,269.135023 L577.051848,269.135023 C576.935181,269.135023 576.839349,269.105857 576.764348,269.047523 C576.689348,268.989189 576.635182,268.91669 576.601848,268.830023 L576.061848,267.355023 L573.066848,267.355023 L572.526848,268.830023 C572.500182,268.90669 572.447682,268.976689 572.369348,269.040023 C572.291015,269.103357 572.195182,269.135023 572.081848,269.135023 L571.036848,269.135023 L573.876848,261.905023 L575.251848,261.905023 L578.091848,269.135023 Z M573.411848,266.405023 L575.716848,266.405023 L574.836848,264.000023 C574.796848,263.893356 574.752682,263.767524 574.704348,263.622523 C574.656015,263.477522 574.608515,263.320024 574.561848,263.150023 C574.515181,263.320024 574.469349,263.478356 574.424348,263.625023 C574.379348,263.771691 574.335182,263.900023 574.291848,264.010023 L573.411848,266.405023 Z M579.541848,261.905023 C579.601849,261.905023 579.651848,261.907523 579.691848,261.912523 C579.731849,261.917523 579.767681,261.927523 579.799348,261.942523 C579.831015,261.957523 579.861848,261.97919 579.891848,262.007523 C579.921848,262.035857 579.955181,262.073356 579.991848,262.120023 L583.786848,266.955023 C583.773515,266.838356 583.764348,266.72419 583.759348,266.612523 C583.754348,266.500856 583.751848,266.39669 583.751848,266.300023 L583.751848,261.905023 L584.936848,261.905023 L584.936848,269.135023 L584.241848,269.135023 C584.135181,269.135023 584.046849,269.118357 583.976848,269.085023 C583.906848,269.05169 583.838515,268.99169 583.771848,268.905023 L579.991848,264.090023 C580.001848,264.19669 580.009348,264.302523 580.014348,264.407523 C580.019348,264.512524 580.021848,264.608356 580.021848,264.695023 L580.021848,269.135023 L578.836848,269.135023 L578.836848,261.905023 L579.541848,261.905023 Z M591.366848,267.430023 C591.440182,267.430023 591.503515,267.458356 591.556848,267.515023 L592.086848,268.090023 C591.793514,268.453358 591.432684,268.731689 591.004348,268.925023 C590.576013,269.118357 590.061851,269.215023 589.461848,269.215023 C588.925179,269.215023 588.442684,269.123357 588.014348,268.940023 C587.586013,268.756689 587.220183,268.501691 586.916848,268.175023 C586.613513,267.848355 586.381016,267.458359 586.219348,267.005023 C586.057681,266.551688 585.976848,266.056692 585.976848,265.520023 C585.976848,264.976687 586.066847,264.479192 586.246848,264.027523 C586.426849,263.575854 586.68018,263.186691 587.006848,262.860023 C587.333517,262.533355 587.724346,262.279191 588.179348,262.097523 C588.634351,261.915856 589.136846,261.825023 589.686848,261.825023 C590.223518,261.825023 590.69268,261.910856 591.094348,262.082523 C591.496017,262.254191 591.84018,262.481688 592.126848,262.765023 L591.676848,263.390023 C591.650182,263.430023 591.616015,263.465023 591.574348,263.495023 C591.532681,263.525023 591.475182,263.540023 591.401848,263.540023 C591.325181,263.540023 591.246849,263.510023 591.166848,263.450023 C591.086848,263.390023 590.985182,263.325023 590.861848,263.255023 C590.738514,263.185023 590.582683,263.120023 590.394348,263.060023 C590.206014,263.000023 589.96685,262.970023 589.676848,262.970023 C589.336847,262.970023 589.02435,263.029189 588.739348,263.147523 C588.454347,263.265857 588.209349,263.435022 588.004348,263.655023 C587.799347,263.875024 587.639349,264.142522 587.524348,264.457523 C587.409348,264.772525 587.351848,265.126688 587.351848,265.520023 C587.351848,265.926692 587.409348,266.288355 587.524348,266.605023 C587.639349,266.921691 587.795181,267.188355 587.991848,267.405023 C588.188516,267.621691 588.42018,267.787523 588.686848,267.902523 C588.953516,268.017524 589.24018,268.075023 589.546848,268.075023 C589.730183,268.075023 589.896014,268.065023 590.044348,268.045023 C590.192682,268.025023 590.329348,267.993357 590.454348,267.950023 C590.579349,267.90669 590.697681,267.850857 590.809348,267.782523 C590.921016,267.714189 591.031848,267.630024 591.141848,267.530023 C591.175182,267.500023 591.210181,267.475857 591.246848,267.457523 C591.283515,267.43919 591.323515,267.430023 591.366848,267.430023 Z M597.661848,261.905023 L597.661848,262.975023 L594.456848,262.975023 L594.456848,264.980023 L596.981848,264.980023 L596.981848,266.015023 L594.456848,266.015023 L594.456848,268.060023 L597.661848,268.060023 L597.661848,269.135023 L593.101848,269.135023 L593.101848,261.905023 L597.661848,261.905023 Z" id="PERFORMANCE-Copy-3" fill="#FFFFFF" transform="translate(560.729348, 265.520023) rotate(14.000000) translate(-560.729348, -265.520023) "></path>
            <polygon id="Shape-Copy-16" fill="#D0021B" fill-rule="nonzero" transform="translate(85.000000, 290.500000) rotate(-270.000000) translate(-85.000000, -290.500000) " points="71.5 294.5 71.5 286.5 84.625 286.5 83.625 282.5 98.5 290.5 83.625 298.5 84.625 294.5"></polygon>
            <path d="M0,58 C20.217679,58 38.170421,69.8059872 53.8582259,93.4179615 C61.672107,105.178763 88.628601,150.326291 97.9140242,167.917201 C135.246064,238.641451 210.916539,277.513012 311.185847,301.177749" id="Path-4-Copy-5" stroke="url(#linearGradient-1)" stroke-width="5" stroke-linecap="round" transform="translate(155.592924, 179.588874) scale(-1, 1) translate(-155.592924, -179.588874) "></path>
            <path d="M311,58 C331.217679,58 349.170421,69.8059872 364.858226,93.4179615 C372.672107,105.178763 399.628601,150.326291 408.914024,167.917201 C446.246064,238.641451 521.916539,277.513012 622.185847,301.177749" id="Path-4-Copy-5" stroke="url(#linearGradient-1)" stroke-width="5" stroke-linecap="round"></path>
            <polygon id="Shape-Copy-17" fill="#15AF50" fill-rule="nonzero" transform="translate(311.000000, 29.000000) rotate(-90.000000) translate(-311.000000, -29.000000) " points="282 33 282 25 326.125 25 325.125 21 340 29 325.125 37 326.125 33"></polygon>
            <polygon id="Shape-Copy-18" fill="#D0021B" fill-rule="nonzero" transform="translate(311.000000, 88.500000) rotate(-270.000000) translate(-311.000000, -88.500000) " points="289.5 92.5 289.5 84.5 318.625 84.5 317.625 80.5 332.5 88.5 317.625 96.5 318.625 92.5"></polygon>
            <polygon id="Shape-Copy-19" fill="#D0021B" fill-rule="nonzero" transform="translate(203.000000, 201.500000) rotate(-270.000000) translate(-203.000000, -201.500000) " points="189.5 205.5 189.5 197.5 202.625 197.5 201.625 193.5 216.5 201.5 201.625 209.5 202.625 205.5"></polygon>
            <polygon id="Shape-Copy-20" fill="#D0021B" fill-rule="nonzero" transform="translate(445.000000, 243.500000) rotate(-270.000000) translate(-445.000000, -243.500000) " points="424.5 247.5 424.5 239.5 451.625 239.5 450.625 235.5 465.5 243.5 450.625 251.5 451.625 247.5"></polygon>
            <polygon id="Shape-Copy-21" fill="#15AF50" fill-rule="nonzero" transform="translate(203.000000, 163.000000) rotate(-90.000000) translate(-203.000000, -163.000000) " points="184 167 184 159 208.125 159 207.125 155 222 163 207.125 171 208.125 167"></polygon>
            <polygon id="Shape-Copy-22" fill="#15AF50" fill-rule="nonzero" transform="translate(445.000000, 201.000000) rotate(-90.000000) translate(-445.000000, -201.000000) " points="426 205 426 197 450.125 197 449.125 193 464 201 449.125 209 450.125 205"></polygon>
            <circle id="Oval-Copy-9" stroke="#FFFFFF" stroke-width="3" fill="#000000" cx="311" cy="60" r="10"></circle>
            <polygon id="Shape-Copy-23" fill="#15AF50" fill-rule="nonzero" transform="translate(85.000000, 260.000000) rotate(-90.000000) translate(-85.000000, -260.000000) " points="66 264 66 256 90.125 256 89.125 252 104 260 89.125 268 90.125 264"></polygon>
            <circle id="Oval-Copy-10" stroke="#FFFFFF" stroke-width="3" fill="#000000" cx="85" cy="275" r="10"></circle>
            <circle id="Oval-Copy-11" stroke="#FFFFFF" stroke-width="3" fill="#000000" cx="203" cy="185" r="10"></circle>
            <circle id="Oval-Copy-12" stroke="#FFFFFF" stroke-width="3" fill="#000000" cx="445" cy="214" r="10"></circle>
            <path d="M169.5,298.5 L477,61" id="Path-5-Copy-2" stroke="#FFFFFF" stroke-width="4" stroke-dasharray="2,2,2"></path>
            <path d="M420.705992,71.2107619 C420.669325,71.2840956 420.626825,71.3357618 420.578492,71.3657619 C420.530158,71.3957621 420.472659,71.4107619 420.405992,71.4107619 C420.339325,71.4107619 420.264325,71.3849289 420.180992,71.3332619 C420.097658,71.281595 419.999326,71.2240956 419.885992,71.1607619 C419.772658,71.0974283 419.640159,71.0399289 419.488492,70.9882619 C419.336824,70.936595 419.157659,70.9107619 418.950992,70.9107619 C418.764324,70.9107619 418.601826,70.9332617 418.463492,70.9782619 C418.325158,71.0232622 418.208492,71.0857615 418.113492,71.1657619 C418.018491,71.2457623 417.947659,71.3415947 417.900992,71.4532619 C417.854325,71.5649292 417.830992,71.6874279 417.830992,71.8207619 C417.830992,71.9907628 417.878491,72.132428 417.973492,72.2457619 C418.068492,72.3590958 418.194324,72.4557615 418.350992,72.5357619 C418.507659,72.6157623 418.685991,72.6874283 418.885992,72.7507619 C419.085993,72.8140956 419.290157,72.8815949 419.498492,72.9532619 C419.706826,73.024929 419.910991,73.1082615 420.110992,73.2032619 C420.310993,73.2982624 420.489324,73.4182612 420.645992,73.5632619 C420.802659,73.7082627 420.928491,73.8857609 421.023492,74.0957619 C421.118492,74.305763 421.165992,74.5607604 421.165992,74.8607619 C421.165992,75.1874302 421.110159,75.4932605 420.998492,75.7782619 C420.886825,76.0632634 420.723493,76.3115942 420.508492,76.5232619 C420.293491,76.7349297 420.030993,76.9015947 419.720992,77.0232619 C419.41099,77.1449292 419.055994,77.2057619 418.655992,77.2057619 C418.425991,77.2057619 418.199326,77.1832622 417.975992,77.1382619 C417.752657,77.0932617 417.538493,77.0290957 417.333492,76.9457619 C417.128491,76.8624282 416.936826,76.7624292 416.758492,76.6457619 C416.580158,76.5290947 416.420992,76.399096 416.280992,76.2557619 L416.670992,75.6107619 C416.707659,75.564095 416.751825,75.5249288 416.803492,75.4932619 C416.855159,75.4615951 416.912658,75.4457619 416.975992,75.4457619 C417.059325,75.4457619 417.149325,75.4799283 417.245992,75.5482619 C417.342659,75.6165956 417.456824,75.6924282 417.588492,75.7757619 C417.720159,75.8590957 417.875158,75.9349283 418.053492,76.0032619 C418.231826,76.0715956 418.44599,76.1057619 418.695992,76.1057619 C419.079327,76.1057619 419.375991,76.0149295 419.585992,75.8332619 C419.795993,75.6515944 419.900992,75.3907636 419.900992,75.0507619 C419.900992,74.860761 419.853492,74.7057625 419.758492,74.5857619 C419.663491,74.4657613 419.537659,74.364929 419.380992,74.2832619 C419.224324,74.2015949 419.045993,74.1324289 418.845992,74.0757619 C418.645991,74.019095 418.442659,73.9574289 418.235992,73.8907619 C418.029324,73.8240949 417.825993,73.7440957 417.625992,73.6507619 C417.425991,73.5574281 417.247659,73.4357627 417.090992,73.2857619 C416.934324,73.1357612 416.808492,72.9482631 416.713492,72.7232619 C416.618491,72.4982608 416.570992,72.2207636 416.570992,71.8907619 C416.570992,71.6274273 416.623491,71.3707632 416.728492,71.1207619 C416.833492,70.8707607 416.986824,70.6490962 417.188492,70.4557619 C417.390159,70.2624276 417.637657,70.1074292 417.930992,69.9907619 C418.224327,69.8740947 418.559323,69.8157619 418.935992,69.8157619 C419.362661,69.8157619 419.75599,69.8824279 420.115992,70.0157619 C420.475994,70.1490959 420.782657,70.3357607 421.035992,70.5757619 L420.705992,71.2107619 Z M428.550992,77.1257619 L427.510992,77.1257619 C427.394324,77.1257619 427.298492,77.0965956 427.223492,77.0382619 C427.148491,76.9799283 427.094325,76.907429 427.060992,76.8207619 L426.520992,75.3457619 L423.525992,75.3457619 L422.985992,76.8207619 C422.959325,76.897429 422.906825,76.9674283 422.828492,77.0307619 C422.750158,77.0940956 422.654326,77.1257619 422.540992,77.1257619 L421.495992,77.1257619 L424.335992,69.8957619 L425.710992,69.8957619 L428.550992,77.1257619 Z M423.870992,74.3957619 L426.175992,74.3957619 L425.295992,71.9907619 C425.255992,71.8840947 425.211825,71.7582627 425.163492,71.6132619 C425.115158,71.4682612 425.067659,71.3107628 425.020992,71.1407619 C424.974325,71.3107628 424.928492,71.4690945 424.883492,71.6157619 C424.838492,71.7624293 424.794325,71.8907614 424.750992,72.0007619 L423.870992,74.3957619 Z M430.640992,76.0157619 L433.535992,76.0157619 L433.535992,77.1257619 L429.295992,77.1257619 L429.295992,69.8957619 L430.640992,69.8957619 L430.640992,76.0157619 Z M440.820992,77.1257619 L439.780992,77.1257619 C439.664324,77.1257619 439.568492,77.0965956 439.493492,77.0382619 C439.418491,76.9799283 439.364325,76.907429 439.330992,76.8207619 L438.790992,75.3457619 L435.795992,75.3457619 L435.255992,76.8207619 C435.229325,76.897429 435.176825,76.9674283 435.098492,77.0307619 C435.020158,77.0940956 434.924326,77.1257619 434.810992,77.1257619 L433.765992,77.1257619 L436.605992,69.8957619 L437.980992,69.8957619 L440.820992,77.1257619 Z M436.140992,74.3957619 L438.445992,74.3957619 L437.565992,71.9907619 C437.525992,71.8840947 437.481825,71.7582627 437.433492,71.6132619 C437.385158,71.4682612 437.337659,71.3107628 437.290992,71.1407619 C437.244325,71.3107628 437.198492,71.4690945 437.153492,71.6157619 C437.108492,71.7624293 437.064325,71.8907614 437.020992,72.0007619 L436.140992,74.3957619 Z M442.955992,74.3007619 L442.955992,77.1257619 L441.610992,77.1257619 L441.610992,69.8957619 L443.815992,69.8957619 C444.309328,69.8957619 444.731823,69.9465948 445.083492,70.0482619 C445.43516,70.1499291 445.723491,70.2924277 445.948492,70.4757619 C446.173493,70.6590962 446.338491,70.8782607 446.443492,71.1332619 C446.548492,71.3882632 446.600992,71.6690937 446.600992,71.9757619 C446.600992,72.2190965 446.565159,72.4490942 446.493492,72.6657619 C446.421825,72.8824297 446.318492,73.0790944 446.183492,73.2557619 C446.048491,73.4324295 445.881826,73.5874279 445.683492,73.7207619 C445.485157,73.8540959 445.259326,73.9607615 445.005992,74.0407619 C445.175993,74.1374291 445.322658,74.275761 445.445992,74.4557619 L447.255992,77.1257619 L446.045992,77.1257619 C445.929324,77.1257619 445.830159,77.1024288 445.748492,77.0557619 C445.666825,77.009095 445.597659,76.942429 445.540992,76.8557619 L444.020992,74.5407619 C443.964325,74.4540948 443.901825,74.3924288 443.833492,74.3557619 C443.765158,74.3190951 443.664326,74.3007619 443.530992,74.3007619 L442.955992,74.3007619 Z M442.955992,73.3357619 L443.795992,73.3357619 C444.049326,73.3357619 444.270157,73.3040956 444.458492,73.2407619 C444.646826,73.1774283 444.801824,73.0899292 444.923492,72.9782619 C445.045159,72.8665947 445.135991,72.734096 445.195992,72.5807619 C445.255992,72.4274278 445.285992,72.2590962 445.285992,72.0757619 C445.285992,71.7090934 445.16516,71.4274296 444.923492,71.2307619 C444.681824,71.0340943 444.312661,70.9357619 443.815992,70.9357619 L442.955992,70.9357619 L442.955992,73.3357619 Z M451.330992,74.3157619 L451.330992,77.1257619 L449.985992,77.1257619 L449.985992,74.3157619 L447.350992,69.8957619 L448.535992,69.8957619 C448.652659,69.8957619 448.745158,69.924095 448.813492,69.9807619 C448.881825,70.0374289 448.939325,70.1090948 448.985992,70.1957619 L450.310992,72.6107619 C450.387659,72.754096 450.454325,72.889928 450.510992,73.0182619 C450.567659,73.1465959 450.619325,73.272428 450.665992,73.3957619 C450.709325,73.2690946 450.758491,73.1415959 450.813492,73.0132619 C450.868492,72.884928 450.934325,72.7507626 451.010992,72.6107619 L452.325992,70.1957619 C452.362659,70.1224282 452.417658,70.0540956 452.490992,69.9907619 C452.564325,69.9274283 452.657658,69.8957619 452.770992,69.8957619 L453.960992,69.8957619 L451.330992,74.3157619 Z" id="SALARY-Copy-2" fill="#FFFFFF" transform="translate(435.120992, 73.510762) rotate(-38.000000) translate(-435.120992, -73.510762) "></path>
        </g>
    </g>
</svg>