<?xml version="1.0" encoding="UTF-8" standalone="no"?>
<svg width="50px" height="50px" viewBox="0 0 50 50" version="1.1" xmlns="http://www.w3.org/2000/svg" xmlns:xlink="http://www.w3.org/1999/xlink">
    <!-- Generator: Sketch 49.3 (51167) - http://www.bohemiancoding.com/sketch -->
    <title>Group 2</title>
    <desc>Created with Sketch.</desc>
    <defs></defs>
    <g id="Page-1" stroke="none" stroke-width="1" fill="none" fill-rule="evenodd">
        <g id="Group-2" fill-rule="nonzero">
            <path d="M24.6,0 C11,0 0,11 0,24.6 C0,38.2 11,49.2 24.6,49.2 C38.2,49.2 49.2,38.2 49.2,24.6 C49.3,11 38.2,0 24.6,0 Z" id="Shape" fill="#000000"></path>
            <g id="Group" transform="translate(12.000000, 10.000000)" fill="#FFFFFF">
                <path d="M7.2,25.2 L1.8,25.2 L1.8,7.2 L7.2,7.2 L7.2,25.2 Z M27,25.2 L21.6,25.2 L21.6,15.5844 C21.6,13.0788 20.7072,11.8314 18.9378,11.8314 C17.5356,11.8314 16.6464,12.5298 16.2,13.9284 C16.2,16.2 16.2,25.2 16.2,25.2 L10.8,25.2 C10.8,25.2 10.872,9 10.8,7.2 L15.0624,7.2 L15.3918,10.8 L15.5034,10.8 C16.6104,9 18.3798,7.7796 20.8062,7.7796 C22.6512,7.7796 24.1434,8.2926 25.2828,9.5814 C26.4294,10.872 27,12.6036 27,15.0354 L27,25.2 Z" id="Shape"></path>
                <ellipse id="Oval" cx="4.5" cy="2.7" rx="2.79" ry="2.7"></ellipse>
            </g>
        </g>
    </g>
</svg>