<?xml version="1.0" encoding="UTF-8" standalone="no"?>
<svg width="76px" height="76px" viewBox="0 0 76 76" version="1.1" xmlns="http://www.w3.org/2000/svg" xmlns:xlink="http://www.w3.org/1999/xlink">
    <!-- Generator: Sketch 50 (54983) - http://www.bohemiancoding.com/sketch -->
    <title>Group 4</title>
    <desc>Created with Sketch.</desc>
    <defs></defs>
    <g id="Page-1" stroke="none" stroke-width="1" fill="none" fill-rule="evenodd">
        <g id="Group-4" transform="translate(1.000000, 1.000000)">
            <circle id="Oval-Copy-2" stroke="#EC6001" fill="#000000" cx="37" cy="37" r="37"></circle>
            <path d="M22.705,28 L22.705,29.105 L20.53,29.105 L20.53,35.23 L19.185,35.23 L19.185,29.105 L17,29.105 L17,28 L22.705,28 Z M26.47,34.145 C26.7300013,34.145 26.962499,34.1016671 27.1675,34.015 C27.372501,33.9283329 27.5458326,33.8066675 27.6875,33.65 C27.8291674,33.4933326 27.9374996,33.3033345 28.0125,33.08 C28.0875004,32.8566656 28.125,32.6066681 28.125,32.33 L28.125,28 L29.47,28 L29.47,32.33 C29.47,32.7600022 29.400834,33.1574982 29.2625,33.5225 C29.124166,33.8875018 28.9250013,34.2024987 28.665,34.4675 C28.4049987,34.7325013 28.0900018,34.9391659 27.72,35.0875 C27.3499982,35.2358341 26.9333357,35.31 26.47,35.31 C26.0066644,35.31 25.5900019,35.2358341 25.22,35.0875 C24.8499982,34.9391659 24.5358346,34.7325013 24.2775,34.4675 C24.0191654,34.2024987 23.820834,33.8875018 23.6825,33.5225 C23.544166,33.1574982 23.475,32.7600022 23.475,32.33 L23.475,28 L24.82,28 L24.82,32.325 C24.82,32.6016681 24.8574996,32.8516656 24.9325,33.075 C25.0075004,33.2983344 25.1149993,33.4891659 25.255,33.6475 C25.3950007,33.8058341 25.567499,33.9283329 25.7725,34.015 C25.977501,34.1016671 26.2099987,34.145 26.47,34.145 Z M32.23,32.405 L32.23,35.23 L30.885,35.23 L30.885,28 L33.09,28 C33.5833358,28 34.0058316,28.0508328 34.3575,28.1525 C34.7091684,28.2541672 34.9974989,28.3966657 35.2225,28.58 C35.4475011,28.7633342 35.6124995,28.9824987 35.7175,29.2375 C35.8225005,29.4925013 35.875,29.7733318 35.875,30.08 C35.875,30.3233346 35.839167,30.5533322 35.7675,30.77 C35.695833,30.9866678 35.5925007,31.1833325 35.4575,31.36 C35.3224993,31.5366676 35.1558343,31.691666 34.9575,31.825 C34.7591657,31.958334 34.5333346,32.0649996 34.28,32.145 C34.4500008,32.2416671 34.596666,32.3799991 34.72,32.56 L36.53,35.23 L35.32,35.23 C35.2033328,35.23 35.1041671,35.2066669 35.0225,35.16 C34.9408329,35.1133331 34.871667,35.0466671 34.815,34.96 L33.295,32.645 C33.238333,32.5583329 33.1758337,32.4966669 33.1075,32.46 C33.0391663,32.4233332 32.938334,32.405 32.805,32.405 L32.23,32.405 Z M32.23,31.44 L33.07,31.44 C33.3233346,31.44 33.5441657,31.4083337 33.7325,31.345 C33.9208343,31.2816664 34.0758327,31.1941672 34.1975,31.0825 C34.3191673,30.9708328 34.4099997,30.8383341 34.47,30.685 C34.5300003,30.5316659 34.56,30.3633343 34.56,30.18 C34.56,29.8133315 34.4391679,29.5316677 34.1975,29.335 C33.9558321,29.1383323 33.5866691,29.04 33.09,29.04 L32.23,29.04 L32.23,31.44 Z M38.095,28 C38.1550003,28 38.2049998,28.0025 38.245,28.0075 C38.2850002,28.0125 38.3208332,28.0224999 38.3525,28.0375 C38.3841668,28.0525001 38.4149999,28.0741665 38.445,28.1025 C38.4750001,28.1308335 38.5083331,28.1683331 38.545,28.215 L42.34,33.05 C42.3266666,32.9333328 42.3175,32.8191672 42.3125,32.7075 C42.3075,32.5958328 42.305,32.4916671 42.305,32.395 L42.305,28 L43.49,28 L43.49,35.23 L42.795,35.23 C42.6883328,35.23 42.6000004,35.2133335 42.53,35.18 C42.4599997,35.1466665 42.391667,35.0866671 42.325,35 L38.545,30.185 C38.5550001,30.2916672 38.5625,30.3974995 38.5675,30.5025 C38.5725,30.6075005 38.575,30.7033329 38.575,30.79 L38.575,35.23 L37.39,35.23 L37.39,28 L38.095,28 Z M48.395,35.23 L47.045,35.23 L47.045,28 L48.395,28 L48.395,35.23 Z M50.725,28 C50.7850003,28 50.8349998,28.0025 50.875,28.0075 C50.9150002,28.0125 50.9508332,28.0224999 50.9825,28.0375 C51.0141668,28.0525001 51.0449999,28.0741665 51.075,28.1025 C51.1050002,28.1308335 51.1383332,28.1683331 51.175,28.215 L54.97,33.05 C54.9566666,32.9333328 54.9475,32.8191672 54.9425,32.7075 C54.9375,32.5958328 54.935,32.4916671 54.935,32.395 L54.935,28 L56.12,28 L56.12,35.23 L55.425,35.23 C55.3183328,35.23 55.2300004,35.2133335 55.16,35.18 C55.0899997,35.1466665 55.021667,35.0866671 54.955,35 L51.175,30.185 C51.1850001,30.2916672 51.1925,30.3974995 51.1975,30.5025 C51.2025,30.6075005 51.205,30.7033329 51.205,30.79 L51.205,35.23 L50.02,35.23 L50.02,28 L50.725,28 Z M24.8525,47.23 L23.8125,47.23 C23.6958327,47.23 23.6000004,47.2008336 23.525,47.1425 C23.4499996,47.0841664 23.3958335,47.0116671 23.3625,46.925 L22.8225,45.45 L19.8275,45.45 L19.2875,46.925 C19.2608332,47.0016671 19.2083337,47.0716664 19.13,47.135 C19.0516663,47.1983337 18.9558339,47.23 18.8425,47.23 L17.7975,47.23 L20.6375,40 L22.0125,40 L24.8525,47.23 Z M20.1725,44.5 L22.4775,44.5 L21.5975,42.095 C21.5574998,41.9883328 21.5133336,41.8625007 21.465,41.7175 C21.4166664,41.5724993 21.3691669,41.4150008 21.3225,41.245 C21.2758331,41.4150008 21.2300002,41.5733326 21.185,41.72 C21.1399998,41.8666674 21.0958335,41.9949995 21.0525,42.105 L20.1725,44.5 Z M30.3125,45.525 C30.3858337,45.525 30.4491664,45.5533331 30.5025,45.61 L31.0325,46.185 C30.7391652,46.5483351 30.3783355,46.8266657 29.95,47.02 C29.5216645,47.2133343 29.007503,47.31 28.4075,47.31 C27.8708306,47.31 27.3883355,47.2183343 26.96,47.035 C26.5316645,46.8516658 26.1658348,46.5966683 25.8625,46.27 C25.5591651,45.9433317 25.3266675,45.5533356 25.165,45.1 C25.0033325,44.6466644 24.9225,44.1516694 24.9225,43.615 C24.9225,43.071664 25.0124991,42.5741689 25.1925,42.1225 C25.3725009,41.6708311 25.6258317,41.2816683 25.9525,40.955 C26.2791683,40.6283317 26.6699977,40.3741676 27.125,40.1925 C27.5800023,40.0108324 28.0824972,39.92 28.6325,39.92 C29.1691694,39.92 29.6383313,40.0058325 30.04,40.1775 C30.4416687,40.3491675 30.7858319,40.5766653 31.0725,40.86 L30.6225,41.485 C30.5958332,41.5250002 30.5616669,41.5599999 30.52,41.59 C30.4783331,41.6200001 30.4208337,41.635 30.3475,41.635 C30.2708329,41.635 30.1925004,41.6050003 30.1125,41.545 C30.0324996,41.4849997 29.930834,41.4200003 29.8075,41.35 C29.684166,41.2799997 29.5283343,41.2150003 29.34,41.155 C29.1516657,41.0949997 28.9125014,41.065 28.6225,41.065 C28.2824983,41.065 27.9700014,41.1241661 27.685,41.2425 C27.3999986,41.3608339 27.155001,41.5299989 26.95,41.75 C26.744999,41.9700011 26.5850006,42.2374984 26.47,42.5525 C26.3549994,42.8675016 26.2975,43.2216647 26.2975,43.615 C26.2975,44.0216687 26.3549994,44.3833318 26.47,44.7 C26.5850006,45.0166683 26.7408323,45.2833323 26.9375,45.5 C27.1341676,45.7166677 27.365832,45.8824994 27.6325,45.9975 C27.899168,46.1125006 28.1858318,46.17 28.4925,46.17 C28.6758342,46.17 28.8416659,46.1600001 28.99,46.14 C29.1383341,46.1199999 29.2749994,46.0883336 29.4,46.045 C29.5250006,46.0016665 29.6433328,45.9458337 29.755,45.8775 C29.8666672,45.8091663 29.9774994,45.7250005 30.0875,45.625 C30.1208335,45.5949999 30.1558331,45.5708334 30.1925,45.5525 C30.2291668,45.5341666 30.2691665,45.525 30.3125,45.525 Z M37.1425,40 L37.1425,41.105 L34.9675,41.105 L34.9675,47.23 L33.6225,47.23 L33.6225,41.105 L31.4375,41.105 L31.4375,40 L37.1425,40 Z M39.5125,47.23 L38.1625,47.23 L38.1625,40 L39.5125,40 L39.5125,47.23 Z M48.0725,43.615 C48.0725,44.1450026 47.9841675,44.6358311 47.8075,45.0875 C47.6308324,45.5391689 47.3825016,45.9299984 47.0625,46.26 C46.7424984,46.5900017 46.3575022,46.8474991 45.9075,47.0325 C45.4574978,47.2175009 44.9591694,47.31 44.4125,47.31 C43.8658306,47.31 43.3666689,47.2175009 42.915,47.0325 C42.4633311,46.8474991 42.0766683,46.5900017 41.755,46.26 C41.4333317,45.9299984 41.1841675,45.5391689 41.0075,45.0875 C40.8308325,44.6358311 40.7425,44.1450026 40.7425,43.615 C40.7425,43.0849974 40.8308325,42.5941689 41.0075,42.1425 C41.1841675,41.6908311 41.4333317,41.3000016 41.755,40.97 C42.0766683,40.6399983 42.4633311,40.3825009 42.915,40.1975 C43.3666689,40.0124991 43.8658306,39.92 44.4125,39.92 C44.9591694,39.92 45.4574978,40.0133324 45.9075,40.2 C46.3575022,40.3866676 46.7424984,40.644165 47.0625,40.9725 C47.3825016,41.300835 47.6308324,41.6908311 47.8075,42.1425 C47.9841675,42.5941689 48.0725,43.0849974 48.0725,43.615 Z M46.6925,43.615 C46.6925,43.2183313 46.6400005,42.8625016 46.535,42.5475 C46.4299995,42.2324984 46.2791676,41.9650011 46.0825,41.745 C45.8858324,41.5249989 45.6466681,41.3566673 45.365,41.24 C45.0833319,41.1233328 44.7658351,41.065 44.4125,41.065 C44.0591649,41.065 43.7408348,41.1233328 43.4575,41.24 C43.1741653,41.3566673 42.9333343,41.5249989 42.735,41.745 C42.5366657,41.9650011 42.3841672,42.2324984 42.2775,42.5475 C42.1708328,42.8625016 42.1175,43.2183313 42.1175,43.615 C42.1175,44.0116687 42.1708328,44.3674984 42.2775,44.6825 C42.3841672,44.9975016 42.5366657,45.2641656 42.735,45.4825 C42.9333343,45.7008344 43.1741653,45.8683328 43.4575,45.985 C43.7408348,46.1016673 44.0591649,46.16 44.4125,46.16 C44.7658351,46.16 45.0833319,46.1016673 45.365,45.985 C45.6466681,45.8683328 45.8858324,45.7008344 46.0825,45.4825 C46.2791676,45.2641656 46.4299995,44.9975016 46.535,44.6825 C46.6400005,44.3674984 46.6925,44.0116687 46.6925,43.615 Z M49.8375,40 C49.8975003,40 49.9474998,40.0025 49.9875,40.0075 C50.0275002,40.0125 50.0633332,40.0224999 50.095,40.0375 C50.1266668,40.0525001 50.1574999,40.0741665 50.1875,40.1025 C50.2175002,40.1308335 50.2508332,40.1683331 50.2875,40.215 L54.0825,45.05 C54.0691666,44.9333328 54.06,44.8191672 54.055,44.7075 C54.05,44.5958328 54.0475,44.4916672 54.0475,44.395 L54.0475,40 L55.2325,40 L55.2325,47.23 L54.5375,47.23 C54.4308328,47.23 54.3425004,47.2133335 54.2725,47.18 C54.2024997,47.1466665 54.134167,47.0866671 54.0675,47 L50.2875,42.185 C50.2975001,42.2916672 50.305,42.3974995 50.31,42.5025 C50.315,42.6075005 50.3175,42.7033329 50.3175,42.79 L50.3175,47.23 L49.1325,47.23 L49.1325,40 L49.8375,40 Z" id="TURN-IN-ACTION" fill="#FFFFFF"></path>
        </g>
    </g>
</svg>