<?xml version="1.0" encoding="UTF-8" standalone="no"?>
<svg width="76px" height="76px" viewBox="0 0 76 76" version="1.1" xmlns="http://www.w3.org/2000/svg" xmlns:xlink="http://www.w3.org/1999/xlink">
    <!-- Generator: Sketch 50 (54983) - http://www.bohemiancoding.com/sketch -->
    <title>Group 2</title>
    <desc>Created with Sketch.</desc>
    <defs></defs>
    <g id="Page-1" stroke="none" stroke-width="1" fill="none" fill-rule="evenodd">
        <g id="Group-2" transform="translate(1.000000, 1.000000)">
            <circle id="Oval" stroke="#EC6001" fill="#000000" cx="37" cy="37" r="37"></circle>
            <path d="M20.2675,34.225 C20.5275013,34.225 20.759999,34.1816671 20.965,34.095 C21.170001,34.0083329 21.3433326,33.8866675 21.485,33.73 C21.6266674,33.5733326 21.7349996,33.3833345 21.81,33.16 C21.8850004,32.9366656 21.9225,32.6866681 21.9225,32.41 L21.9225,28.08 L23.2675,28.08 L23.2675,32.41 C23.2675,32.8400022 23.198334,33.2374982 23.06,33.6025 C22.921666,33.9675018 22.7225013,34.2824987 22.4625,34.5475 C22.2024987,34.8125013 21.8875019,35.0191659 21.5175,35.1675 C21.1474981,35.3158341 20.7308357,35.39 20.2675,35.39 C19.8041644,35.39 19.3875019,35.3158341 19.0175,35.1675 C18.6474981,35.0191659 18.3333346,34.8125013 18.075,34.5475 C17.8166654,34.2824987 17.618334,33.9675018 17.48,33.6025 C17.341666,33.2374982 17.2725,32.8400022 17.2725,32.41 L17.2725,28.08 L18.6175,28.08 L18.6175,32.405 C18.6175,32.681668 18.6549996,32.9316656 18.73,33.155 C18.8050004,33.3783344 18.9124993,33.5691659 19.0525,33.7275 C19.1925007,33.8858341 19.364999,34.0083329 19.57,34.095 C19.775001,34.1816671 20.0074987,34.225 20.2675,34.225 Z M26.0275,32.765 L26.0275,35.31 L24.6825,35.31 L24.6825,28.08 L27.0375,28.08 C27.5208358,28.08 27.9391649,28.1366661 28.2925,28.25 C28.6458351,28.3633339 28.9374988,28.5216657 29.1675,28.725 C29.3975012,28.9283344 29.5674995,29.1716653 29.6775,29.455 C29.7875006,29.7383348 29.8425,30.0483316 29.8425,30.385 C29.8425,30.7350018 29.7841672,31.0558319 29.6675,31.3475 C29.5508328,31.6391681 29.3758345,31.889999 29.1425,32.1 C28.9091655,32.3100011 28.6175018,32.4733327 28.2675,32.59 C27.9174982,32.7066673 27.5075024,32.765 27.0375,32.765 L26.0275,32.765 Z M26.0275,31.715 L27.0375,31.715 C27.2841679,31.715 27.4991658,31.684167 27.6825,31.6225 C27.8658343,31.560833 28.0174994,31.4725006 28.1375,31.3575 C28.2575006,31.2424994 28.3474997,31.1025008 28.4075,30.9375 C28.4675003,30.7724992 28.4975,30.5883343 28.4975,30.385 C28.4975,30.1916657 28.4675003,30.0166674 28.4075,29.86 C28.3474997,29.7033325 28.2575006,29.5700006 28.1375,29.46 C28.0174994,29.3499994 27.8658343,29.2658336 27.6825,29.2075 C27.4991658,29.1491664 27.2841679,29.12 27.0375,29.12 L26.0275,29.12 L26.0275,31.715 Z M32.2325,34.2 L35.1275,34.2 L35.1275,35.31 L30.8875,35.31 L30.8875,28.08 L32.2325,28.08 L32.2325,34.2 Z M42.5925,31.695 C42.5925,32.2250026 42.5041676,32.7158311 42.3275,33.1675 C42.1508324,33.6191689 41.9025016,34.0099984 41.5825,34.34 C41.2624984,34.6700017 40.8775022,34.9274991 40.4275,35.1125 C39.9774977,35.2975009 39.4791694,35.39 38.9325,35.39 C38.3858306,35.39 37.8866689,35.2975009 37.435,35.1125 C36.9833311,34.9274991 36.5966683,34.6700017 36.275,34.34 C35.9533317,34.0099984 35.7041675,33.6191689 35.5275,33.1675 C35.3508325,32.7158311 35.2625,32.2250026 35.2625,31.695 C35.2625,31.1649973 35.3508325,30.6741689 35.5275,30.2225 C35.7041675,29.7708311 35.9533317,29.3800016 36.275,29.05 C36.5966683,28.7199983 36.9833311,28.4625009 37.435,28.2775 C37.8866689,28.0924991 38.3858306,28 38.9325,28 C39.4791694,28 39.9774977,28.0933324 40.4275,28.28 C40.8775022,28.4666676 41.2624984,28.724165 41.5825,29.0525 C41.9025016,29.380835 42.1508324,29.7708311 42.3275,30.2225 C42.5041676,30.6741689 42.5925,31.1649973 42.5925,31.695 Z M41.2125,31.695 C41.2125,31.2983313 41.1600005,30.9425016 41.055,30.6275 C40.9499995,30.3124984 40.7991677,30.0450011 40.6025,29.825 C40.4058323,29.6049989 40.1666681,29.4366672 39.885,29.32 C39.6033319,29.2033328 39.2858351,29.145 38.9325,29.145 C38.5791649,29.145 38.2608348,29.2033328 37.9775,29.32 C37.6941652,29.4366672 37.4533343,29.6049989 37.255,29.825 C37.0566657,30.0450011 36.9041672,30.3124984 36.7975,30.6275 C36.6908328,30.9425016 36.6375,31.2983313 36.6375,31.695 C36.6375,32.0916687 36.6908328,32.4474984 36.7975,32.7625 C36.9041672,33.0775016 37.0566657,33.3441656 37.255,33.5625 C37.4533343,33.7808344 37.6941652,33.9483328 37.9775,34.065 C38.2608348,34.1816673 38.5791649,34.24 38.9325,34.24 C39.2858351,34.24 39.6033319,34.1816673 39.885,34.065 C40.1666681,33.9483328 40.4058323,33.7808344 40.6025,33.5625 C40.7991677,33.3441656 40.9499995,33.0775016 41.055,32.7625 C41.1600005,32.4474984 41.2125,32.0916687 41.2125,31.695 Z M49.7525,35.31 L48.7125,35.31 C48.5958327,35.31 48.5000004,35.2808336 48.425,35.2225 C48.3499996,35.1641664 48.2958335,35.0916671 48.2625,35.005 L47.7225,33.53 L44.7275,33.53 L44.1875,35.005 C44.1608332,35.0816671 44.1083337,35.1516663 44.03,35.215 C43.9516663,35.2783337 43.8558339,35.31 43.7425,35.31 L42.6975,35.31 L45.5375,28.08 L46.9125,28.08 L49.7525,35.31 Z M45.0725,32.58 L47.3775,32.58 L46.4975,30.175 C46.4574998,30.0683328 46.4133336,29.9425007 46.365,29.7975 C46.3166664,29.6524993 46.2691669,29.4950008 46.2225,29.325 C46.1758331,29.4950008 46.1300002,29.6533326 46.085,29.8 C46.0399998,29.9466674 45.9958335,30.0749995 45.9525,30.185 L45.0725,32.58 Z M56.9175,31.695 C56.9175,32.2250026 56.8291675,32.7116645 56.6525,33.155 C56.4758325,33.5983356 56.2275016,33.9799984 55.9075,34.3 C55.5874984,34.6200016 55.2025023,34.8683324 54.7525,35.045 C54.3024978,35.2216676 53.8041694,35.31 53.2575,35.31 L50.4975,35.31 L50.4975,28.08 L53.2575,28.08 C53.8041694,28.08 54.3024978,28.1691658 54.7525,28.3475 C55.2025023,28.5258342 55.5874984,28.7741651 55.9075,29.0925 C56.2275016,29.4108349 56.4758325,29.7916644 56.6525,30.235 C56.8291675,30.6783355 56.9175,31.1649973 56.9175,31.695 Z M55.5425,31.695 C55.5425,31.2983313 55.4891672,30.9425016 55.3825,30.6275 C55.2758328,30.3124984 55.1241677,30.0458344 54.9275,29.8275 C54.7308324,29.6091656 54.4916681,29.4416672 54.21,29.325 C53.9283319,29.2083328 53.6108351,29.15 53.2575,29.15 L51.8525,29.15 L51.8525,34.24 L53.2575,34.24 C53.6108351,34.24 53.9283319,34.1816673 54.21,34.065 C54.4916681,33.9483328 54.7308324,33.7808344 54.9275,33.5625 C55.1241677,33.3441656 55.2758328,33.0775016 55.3825,32.7625 C55.4891672,32.4474984 55.5425,32.0916687 55.5425,31.695 Z M12.98,44.5 L12.98,47.31 L11.635,47.31 L11.635,44.5 L9,40.08 L10.185,40.08 C10.3016673,40.08 10.3941663,40.108333 10.4625,40.165 C10.5308337,40.2216669 10.5883331,40.2933329 10.635,40.38 L11.96,42.795 C12.0366671,42.9383341 12.1033331,43.074166 12.16,43.2025 C12.2166669,43.330834 12.2683331,43.456666 12.315,43.58 C12.3583335,43.4533327 12.4074997,43.325834 12.4625,43.1975 C12.5175003,43.069166 12.5833329,42.9350007 12.66,42.795 L13.975,40.38 C14.0116669,40.3066663 14.0666663,40.2383337 14.14,40.175 C14.2133337,40.1116664 14.3066661,40.08 14.42,40.08 L15.61,40.08 L12.98,44.5 Z M22.845,43.695 C22.845,44.2250026 22.7566676,44.7158311 22.58,45.1675 C22.4033324,45.6191689 22.1550016,46.0099984 21.835,46.34 C21.5149984,46.6700017 21.1300022,46.9274991 20.68,47.1125 C20.2299977,47.2975009 19.7316694,47.39 19.185,47.39 C18.6383306,47.39 18.1391689,47.2975009 17.6875,47.1125 C17.2358311,46.9274991 16.8491683,46.6700017 16.5275,46.34 C16.2058317,46.0099984 15.9566675,45.6191689 15.78,45.1675 C15.6033325,44.7158311 15.515,44.2250026 15.515,43.695 C15.515,43.1649974 15.6033325,42.6741689 15.78,42.2225 C15.9566675,41.7708311 16.2058317,41.3800016 16.5275,41.05 C16.8491683,40.7199983 17.2358311,40.4625009 17.6875,40.2775 C18.1391689,40.0924991 18.6383306,40 19.185,40 C19.7316694,40 20.2299977,40.0933324 20.68,40.28 C21.1300022,40.4666676 21.5149984,40.724165 21.835,41.0525 C22.1550016,41.380835 22.4033324,41.7708311 22.58,42.2225 C22.7566676,42.6741689 22.845,43.1649974 22.845,43.695 Z M21.465,43.695 C21.465,43.2983313 21.4125005,42.9425016 21.3075,42.6275 C21.2024995,42.3124984 21.0516677,42.0450011 20.855,41.825 C20.6583323,41.6049989 20.4191681,41.4366672 20.1375,41.32 C19.8558319,41.2033328 19.5383351,41.145 19.185,41.145 C18.8316649,41.145 18.5133348,41.2033328 18.23,41.32 C17.9466652,41.4366672 17.7058343,41.6049989 17.5075,41.825 C17.3091657,42.0450011 17.1566672,42.3124984 17.05,42.6275 C16.9433328,42.9425016 16.89,43.2983313 16.89,43.695 C16.89,44.0916687 16.9433328,44.4474984 17.05,44.7625 C17.1566672,45.0775016 17.3091657,45.3441656 17.5075,45.5625 C17.7058343,45.7808344 17.9466652,45.9483328 18.23,46.065 C18.5133348,46.1816673 18.8316649,46.24 19.185,46.24 C19.5383351,46.24 19.8558319,46.1816673 20.1375,46.065 C20.4191681,45.9483328 20.6583323,45.7808344 20.855,45.5625 C21.0516677,45.3441656 21.2024995,45.0775016 21.3075,44.7625 C21.4125005,44.4474984 21.465,44.0916687 21.465,43.695 Z M26.815,46.225 C27.0750013,46.225 27.307499,46.1816671 27.5125,46.095 C27.717501,46.0083329 27.8908326,45.8866675 28.0325,45.73 C28.1741674,45.5733326 28.2824996,45.3833345 28.3575,45.16 C28.4325004,44.9366656 28.47,44.6866681 28.47,44.41 L28.47,40.08 L29.815,40.08 L29.815,44.41 C29.815,44.8400022 29.745834,45.2374982 29.6075,45.6025 C29.469166,45.9675018 29.2700013,46.2824987 29.01,46.5475 C28.7499987,46.8125013 28.4350018,47.0191659 28.065,47.1675 C27.6949982,47.3158341 27.2783357,47.39 26.815,47.39 C26.3516643,47.39 25.9350018,47.3158341 25.565,47.1675 C25.1949982,47.0191659 24.8808346,46.8125013 24.6225,46.5475 C24.3641654,46.2824987 24.165834,45.9675018 24.0275,45.6025 C23.889166,45.2374982 23.82,44.8400022 23.82,44.41 L23.82,40.08 L25.165,40.08 L25.165,44.405 C25.165,44.681668 25.2024996,44.9316656 25.2775,45.155 C25.3525004,45.3783345 25.4599993,45.5691659 25.6,45.7275 C25.7400007,45.8858341 25.912499,46.0083329 26.1175,46.095 C26.322501,46.1816671 26.5549987,46.225 26.815,46.225 Z M32.575,44.485 L32.575,47.31 L31.23,47.31 L31.23,40.08 L33.435,40.08 C33.9283358,40.08 34.3508316,40.1308328 34.7025,40.2325 C35.0541684,40.3341672 35.3424989,40.4766657 35.5675,40.66 C35.7925011,40.8433342 35.9574995,41.0624987 36.0625,41.3175 C36.1675005,41.5725013 36.22,41.8533318 36.22,42.16 C36.22,42.4033346 36.184167,42.6333322 36.1125,42.85 C36.040833,43.0666677 35.9375007,43.2633325 35.8025,43.44 C35.6674993,43.6166676 35.5008343,43.771666 35.3025,43.905 C35.1041657,44.038334 34.8783346,44.1449996 34.625,44.225 C34.7950009,44.3216672 34.9416661,44.4599991 35.065,44.64 L36.875,47.31 L35.665,47.31 C35.5483327,47.31 35.4491671,47.2866669 35.3675,47.24 C35.2858329,47.1933331 35.2166669,47.1266671 35.16,47.04 L33.64,44.725 C33.583333,44.6383329 33.5208337,44.5766669 33.4525,44.54 C33.3841663,44.5033332 33.283334,44.485 33.15,44.485 L32.575,44.485 Z M32.575,43.52 L33.415,43.52 C33.6683346,43.52 33.8891657,43.4883337 34.0775,43.425 C34.2658343,43.3616664 34.4208327,43.2741672 34.5425,43.1625 C34.6641673,43.0508328 34.7549997,42.9183341 34.815,42.765 C34.8750003,42.6116659 34.905,42.4433343 34.905,42.26 C34.905,41.8933315 34.7841679,41.6116677 34.5425,41.415 C34.3008321,41.2183323 33.9316692,41.12 33.435,41.12 L32.575,41.12 L32.575,43.52 Z M46.085,43.695 C46.085,44.2250026 45.9966675,44.7116645 45.82,45.155 C45.6433325,45.5983356 45.3950016,45.9799984 45.075,46.3 C44.7549984,46.6200016 44.3700022,46.8683325 43.92,47.045 C43.4699978,47.2216676 42.9716694,47.31 42.425,47.31 L39.665,47.31 L39.665,40.08 L42.425,40.08 C42.9716694,40.08 43.4699978,40.1691658 43.92,40.3475 C44.3700022,40.5258342 44.7549984,40.7741651 45.075,41.0925 C45.3950016,41.4108349 45.6433325,41.7916644 45.82,42.235 C45.9966675,42.6783355 46.085,43.1649974 46.085,43.695 Z M44.71,43.695 C44.71,43.2983313 44.6566672,42.9425016 44.55,42.6275 C44.4433328,42.3124984 44.2916676,42.0458344 44.095,41.8275 C43.8983324,41.6091656 43.6591681,41.4416672 43.3775,41.325 C43.0958319,41.2083327 42.7783351,41.15 42.425,41.15 L41.02,41.15 L41.02,46.24 L42.425,46.24 C42.7783351,46.24 43.0958319,46.1816673 43.3775,46.065 C43.6591681,45.9483328 43.8983324,45.7808344 44.095,45.5625 C44.2916676,45.3441656 44.4433328,45.0775016 44.55,44.7625 C44.6566672,44.4474984 44.71,44.0916687 44.71,43.695 Z M53.24,47.31 L52.2,47.31 C52.0833328,47.31 51.9875004,47.2808336 51.9125,47.2225 C51.8374996,47.1641664 51.7833335,47.0916671 51.75,47.005 L51.21,45.53 L48.215,45.53 L47.675,47.005 C47.6483332,47.0816671 47.5958337,47.1516663 47.5175,47.215 C47.4391663,47.2783337 47.3433339,47.31 47.23,47.31 L46.185,47.31 L49.025,40.08 L50.4,40.08 L53.24,47.31 Z M48.56,44.58 L50.865,44.58 L49.985,42.175 C49.9449998,42.0683328 49.9008336,41.9425007 49.8525,41.7975 C49.8041664,41.6524993 49.7566669,41.4950008 49.71,41.325 C49.6633331,41.4950008 49.6175002,41.6533326 49.5725,41.8 C49.5274998,41.9466674 49.4833335,42.0749995 49.44,42.185 L48.56,44.58 Z M58.345,40.08 L58.345,41.185 L56.17,41.185 L56.17,47.31 L54.825,47.31 L54.825,41.185 L52.64,41.185 L52.64,40.08 L58.345,40.08 Z M64.82,47.31 L63.78,47.31 C63.6633327,47.31 63.5675004,47.2808336 63.4925,47.2225 C63.4174996,47.1641664 63.3633335,47.0916671 63.33,47.005 L62.79,45.53 L59.795,45.53 L59.255,47.005 C59.2283332,47.0816671 59.1758337,47.1516663 59.0975,47.215 C59.0191663,47.2783337 58.9233339,47.31 58.81,47.31 L57.765,47.31 L60.605,40.08 L61.98,40.08 L64.82,47.31 Z M60.14,44.58 L62.445,44.58 L61.565,42.175 C61.5249998,42.0683328 61.4808336,41.9425007 61.4325,41.7975 C61.3841664,41.6524993 61.3366669,41.4950008 61.29,41.325 C61.2433331,41.4950008 61.1975002,41.6533326 61.1525,41.8 C61.1074998,41.9466674 61.0633336,42.0749995 61.02,42.185 L60.14,44.58 Z" id="UPLOAD-YOUR-DATA" fill="#FFFFFF"></path>
        </g>
    </g>
</svg>